<?xml version="1.0" encoding="utf-8"?>
<!-- Generator: Adobe Illustrator 26.0.2, SVG Export Plug-In . SVG Version: 6.00 Build 0)  -->
<svg version="1.1" id="svg981" xmlns:svg="http://www.w3.org/2000/svg"
	 xmlns="http://www.w3.org/2000/svg" xmlns:xlink="http://www.w3.org/1999/xlink" x="0px" y="0px" viewBox="0 0 682.7 682.7"
	 style="enable-background:new 0 0 682.7 682.7;" xml:space="preserve">
<style type="text/css">
	.st0{display:none;}
	.st1{display:inline;}
	.st2{fill:#91A8DD;}
	.st3{fill:#B5CEFF;}
	.st4{fill:#E9F2FF;}
	.st5{fill:#DEEBFF;}
	
		.st6{display:inline;fill:none;stroke:#000000;stroke-width:20;stroke-linecap:round;stroke-linejoin:round;stroke-miterlimit:13.3333;}
	.st7{clip-path:url(#SVGID_00000135670511030989577490000014250619165964062358_);}
	.st8{fill:none;stroke:#000000;stroke-width:20;stroke-linecap:round;stroke-linejoin:round;stroke-miterlimit:13.3333;}
	.st9{fill-rule:evenodd;clip-rule:evenodd;fill:#B9B9B9;}
	.st10{fill-rule:evenodd;clip-rule:evenodd;fill:#FA4954;}
	.st11{fill-rule:evenodd;clip-rule:evenodd;fill:#D8D8D8;}
	.st12{fill-rule:evenodd;clip-rule:evenodd;fill:#BE3C44;}
	.st13{fill-rule:evenodd;clip-rule:evenodd;fill:#B46D49;}
	.st14{fill-rule:evenodd;clip-rule:evenodd;fill:#A35F3F;}
	.st15{fill-rule:evenodd;clip-rule:evenodd;fill:#C68659;}
	.st16{fill-rule:evenodd;clip-rule:evenodd;fill:#924E38;}
	.st17{fill-rule:evenodd;clip-rule:evenodd;fill:#457E3B;}
	.st18{fill-rule:evenodd;clip-rule:evenodd;fill:#61AB52;}
</style>
<g id="g987" transform="matrix(1.3333333,0,0,-1.3333333,0,682.66667)" class="st0">
	<g id="g989" transform="translate(457.3389,91.375)" class="st1">
		<path id="path991" class="st2" d="M0,0l-302.1,31.2l39.4,381.9l302.1-31.2L0,0z"/>
	</g>
	<g id="g993" transform="translate(305.5669,63.8193)" class="st1">
		<path id="path995" class="st3" d="M0,0l-238.9-32.4l-51.5,380.5l301,40.8L53.7,70.5L0,0z"/>
	</g>
	<g id="g997" transform="translate(359.2798,7.5)" class="st1">
		<path id="path999" class="st4" d="M0,0h-241v383.9H62.7V62.6L0,0z"/>
	</g>
	<g id="g1001" transform="translate(371.9585,391.4346)" class="st1">
		<path id="path1003" class="st5" d="M0,0v-371.3l50,50V0H0z"/>
	</g>
	<g id="g1005" transform="translate(359.2798,7.5)" class="st1">
		<path id="path1007" class="st2" d="M0,0v62.6h62.7L0,0z"/>
	</g>
	<g id="g1009" transform="translate(462.1963,138.4165)">
		<path id="path1011" class="st6" d="M0,0l-4.9-47l-35.4,3.7"/>
	</g>
	<g id="g1013">
		<g class="st1">
			<defs>
				<rect id="SVGID_1_" x="-85.3" y="-85.3" width="682.7" height="682.7"/>
			</defs>
			<clipPath id="SVGID_00000054223862911483716940000009360312751685469331_">
				<use xlink:href="#SVGID_1_"  style="overflow:visible;"/>
			</clipPath>
			<g id="g1015" style="clip-path:url(#SVGID_00000054223862911483716940000009360312751685469331_);">
				<g id="g1021" transform="translate(187.521,435.2671)">
					<path id="path1023" class="st8" d="M0,0l7.1,69.2L309.3,38l-30.4-294.3"/>
				</g>
				<g id="g1025" transform="translate(118.2476,38.4468)">
					<path id="path1027" class="st8" d="M0,0l-51.5-7L-103,373.5l301,40.8l8.3-61.3"/>
				</g>
				<g id="g1029" transform="translate(118.3335,294.3335)">
					<path id="path1031" class="st8" d="M0,0C0,0-0.1,0,0,0l-0.1-286.8h241l62.7,62.6V97.1H-0.1V40c0,0,0.1,0,0.1,0"/>
				</g>
				<g id="g1033" transform="translate(359.2798,7.5)">
					<path id="path1035" class="st8" d="M0,0v62.6h62.7L0,0z"/>
				</g>
			</g>
		</g>
	</g>
</g>
<g id="Layer_x0020_1" class="st0">
	<g id="_302206056" class="st1">
		<path id="_304206880" class="st9" d="M244.5,412l12.6,29.1l36.8-0.6c5.4-10.5,14.9-35.1,44.7-36.1c24.6-0.9,36.4-21.6,42.9-37.6
			L495.1,85.9c11.3-27.9,6-66.5-24.6-75.3c-6.8-2-13.9,1-17.2,7.3L244.5,412z"/>
		<path id="_302206320" class="st10" d="M295.3,441.3l-55.3-31.9c-3.8-2.2-8.5-1.4-11.4,1.9c-18.8,21.2-67.4,38.8-89,44.5
			c-38.8,10.4-107.7,47.2-98.2,133.1c10,90.7,106.3,113,164.7,41.1c18.8-23.2,33-58.3,47.5-83.4l47.8-82.8
			C305.8,455.9,303.1,445.8,295.3,441.3L295.3,441.3z M181.2,486.1c12-3.9,24.8-0.3,33,9.2c8.2,9.6,9.8,22.8,4.1,34.1
			c-11.8,23.1-23.7,50.7-39.9,70.7c-13.6,16.7-36.6,33.4-59.3,26c-18.9-6.1-26.4-25.4-28.4-43.5c-5.3-48.1,25.9-78.6,69.9-90.3
			C167.5,490.4,174.4,488.4,181.2,486.1L181.2,486.1z"/>
		<path id="_302206128" class="st10" d="M387.4,441.3l55.3-31.9c3.8-2.2,8.5-1.4,11.4,1.9c18.8,21.2,67.4,38.8,89,44.5
			c38.8,10.4,107.7,47.2,98.2,133.1c-10,90.7-106.3,113-164.7,41.1c-18.8-23.2-33-58.3-47.5-83.4l-47.8-82.8
			C376.9,455.9,379.6,445.8,387.4,441.3L387.4,441.3z M501.5,486.1c6.8,2.2,13.7,4.3,20.6,6.2c43.9,11.7,75.2,42.3,69.9,90.3
			c-2,18.1-9.5,37.4-28.4,43.5c-22.7,7.4-45.7-9.3-59.3-26c-16.3-20.1-28.2-47.6-39.9-70.7c-5.7-11.3-4.2-24.5,4.1-34.1
			C476.6,485.8,489.5,482.2,501.5,486.1L501.5,486.1z"/>
		<path id="_302206512" class="st11" d="M438.1,412l-12.6,29.1l-36.8-0.6c-5.4-10.5-14.9-35.1-44.7-36.1
			c-24.6-0.9-36.4-21.6-42.9-37.6L187.6,85.9c-11.3-27.9-6-66.5,24.6-75.3c6.8-2,13.9,1,17.2,7.3L438.1,412z"/>
		<circle id="_302206584" class="st10" cx="341.3" cy="332.3" r="21.7"/>
		<g>
			<path id="_302205984" class="st12" d="M192.7,435.7l93.6,54.1l15-26c4.5-7.9,1.8-18-6-22.5l-1.4-0.8L244.5,412l-4.6-2.7
				c-3.8-2.2-8.5-1.4-11.4,1.9C220.5,420.2,207.1,428.6,192.7,435.7L192.7,435.7z"/>
			<path id="_302206416" class="st12" d="M381.4,463.8l15,26l93.6-54.1c-14.4-7.1-27.8-15.5-35.8-24.5c-2.9-3.3-7.6-4.1-11.4-1.9
				l-4.6,2.7l-49.4,28.5l-1.4,0.8C379.6,445.8,376.9,455.9,381.4,463.8z"/>
		</g>
	</g>
</g>
<g id="Layer_1_00000151527091497543247210000008609733986974237859_">
	<path class="st13" d="M399.9,182.6l116.7-73.2l114.6,108.2l31.2,270.6L490.9,601.1L399.9,182.6z"/>
	<path class="st14" d="M373.9,612.8l117-11.7l-91-418.5l-158.3-57.1l-48.9,102.1l87.7,58.6L337,442.4L373.9,612.8z"/>
	<path class="st15" d="M192.6,227.5l87.7,58.6L337,442.4l36.9,170.4l-161.1,18.3l-10.1-201.8l19.1-73.6L192.6,227.5z"/>
	<path class="st16" d="M192.6,227.5l29.2,128.2l-19.1,73.6l10.1,201.8L40.4,606.3l-21.7-75.4l24.2-176.4L192.6,227.5z"/>
	<path class="st15" d="M241.6,125.5l87.5-73.8l187.5,57.8l-116.7,73.2L241.6,125.5z"/>
	<path class="st17" d="M170.6,60.6l-27.6,209l49.6-42.1L170.6,60.6z"/>
	<path class="st18" d="M141.6,270.8c-21.5-49.2-53.5-90.8-94.7-113.8c27.6,46.2,45.6,93.1,55.4,147.1L141.6,270.8z"/>
</g>
</svg>
